<svg width="15" height="15" viewBox="0 0 15 15" fill="none" xmlns="http://www.w3.org/2000/svg">
<path fill-rule="evenodd" clip-rule="evenodd" d="M7.5 0C7.91421 0 8.25 0.335786 8.25 0.75V14.25C8.25 14.6642 7.91421 15 7.5 15C7.08579 15 6.75 14.6642 6.75 14.25V0.75C6.75 0.335786 7.08579 0 7.5 0Z" fill="white"/>
<path fill-rule="evenodd" clip-rule="evenodd" d="M15 7.5C15 7.91421 14.6642 8.25 14.25 8.25L0.75 8.25C0.335787 8.25 -1.81059e-08 7.91421 0 7.5C1.81059e-08 7.08579 0.335787 6.75 0.75 6.75L14.25 6.75C14.6642 6.75 15 7.08579 15 7.5Z" fill="white"/>
</svg>
