<svg width="8" height="8" viewBox="0 0 8 8" fill="none" xmlns="http://www.w3.org/2000/svg">
<path d="M7 0H1C0.734783 0 0.48043 0.105357 0.292893 0.292893C0.105357 0.48043 0 0.734783 0 1V7C0 7.26522 0.105357 7.51957 0.292893 7.70711C0.48043 7.89464 0.734783 8 1 8H7C7.26522 8 7.51957 7.89464 7.70711 7.70711C7.89464 7.51957 8 7.26522 8 7V1C8 0.734783 7.89464 0.48043 7.70711 0.292893C7.51957 0.105357 7.26522 0 7 0ZM0.5 1.9285C0.5 1.692 0.724 1.5 1 1.5H7C7.276 1.5 7.5 1.692 7.5 1.9285V7.0715C7.5 7.308 7.276 7.5 7 7.5H1C0.724 7.5 0.5 7.308 0.5 7.0715V1.9285Z" fill="white"/>
<path d="M3.25 3.5C3.38261 3.5 3.50978 3.44732 3.60355 3.35355C3.69732 3.25978 3.75 3.13261 3.75 3C3.75 2.86739 3.69732 2.74022 3.60355 2.64645C3.50978 2.55268 3.38261 2.5 3.25 2.5C3.11739 2.5 2.99022 2.55268 2.89645 2.64645C2.80268 2.74022 2.75 2.86739 2.75 3C2.75 3.13261 2.80268 3.25978 2.89645 3.35355C2.99022 3.44732 3.11739 3.5 3.25 3.5ZM4.75 3.5C4.88261 3.5 5.00978 3.44732 5.10355 3.35355C5.19732 3.25978 5.25 3.13261 5.25 3C5.25 2.86739 5.19732 2.74022 5.10355 2.64645C5.00978 2.55268 4.88261 2.5 4.75 2.5C4.61739 2.5 4.49021 2.55268 4.39645 2.64645C4.30268 2.74022 4.25 2.86739 4.25 3C4.25 3.13261 4.30268 3.25978 4.39645 3.35355C4.49021 3.44732 4.61739 3.5 4.75 3.5ZM6.25 3.5C6.38261 3.5 6.50979 3.44732 6.60355 3.35355C6.69732 3.25978 6.75 3.13261 6.75 3C6.75 2.86739 6.69732 2.74022 6.60355 2.64645C6.50979 2.55268 6.38261 2.5 6.25 2.5C6.11739 2.5 5.99021 2.55268 5.89645 2.64645C5.80268 2.74022 5.75 2.86739 5.75 3C5.75 3.13261 5.80268 3.25978 5.89645 3.35355C5.99021 3.44732 6.11739 3.5 6.25 3.5ZM1.75 5C1.88261 5 2.00979 4.94732 2.10355 4.85355C2.19732 4.75978 2.25 4.63261 2.25 4.5C2.25 4.36739 2.19732 4.24021 2.10355 4.14645C2.00979 4.05268 1.88261 4 1.75 4C1.61739 4 1.49021 4.05268 1.39645 4.14645C1.30268 4.24021 1.25 4.36739 1.25 4.5C1.25 4.63261 1.30268 4.75978 1.39645 4.85355C1.49021 4.94732 1.61739 5 1.75 5ZM3.25 5C3.38261 5 3.50978 4.94732 3.60355 4.85355C3.69732 4.75978 3.75 4.63261 3.75 4.5C3.75 4.36739 3.69732 4.24021 3.60355 4.14645C3.50978 4.05268 3.38261 4 3.25 4C3.11739 4 2.99022 4.05268 2.89645 4.14645C2.80268 4.24021 2.75 4.36739 2.75 4.5C2.75 4.63261 2.80268 4.75978 2.89645 4.85355C2.99022 4.94732 3.11739 5 3.25 5ZM4.75 5C4.88261 5 5.00978 4.94732 5.10355 4.85355C5.19732 4.75978 5.25 4.63261 5.25 4.5C5.25 4.36739 5.19732 4.24021 5.10355 4.14645C5.00978 4.05268 4.88261 4 4.75 4C4.61739 4 4.49021 4.05268 4.39645 4.14645C4.30268 4.24021 4.25 4.36739 4.25 4.5C4.25 4.63261 4.30268 4.75978 4.39645 4.85355C4.49021 4.94732 4.61739 5 4.75 5ZM6.25 5C6.38261 5 6.50979 4.94732 6.60355 4.85355C6.69732 4.75978 6.75 4.63261 6.75 4.5C6.75 4.36739 6.69732 4.24021 6.60355 4.14645C6.50979 4.05268 6.38261 4 6.25 4C6.11739 4 5.99021 4.05268 5.89645 4.14645C5.80268 4.24021 5.75 4.36739 5.75 4.5C5.75 4.63261 5.80268 4.75978 5.89645 4.85355C5.99021 4.94732 6.11739 5 6.25 5ZM1.75 6.5C1.88261 6.5 2.00979 6.44732 2.10355 6.35355C2.19732 6.25979 2.25 6.13261 2.25 6C2.25 5.86739 2.19732 5.74021 2.10355 5.64645C2.00979 5.55268 1.88261 5.5 1.75 5.5C1.61739 5.5 1.49021 5.55268 1.39645 5.64645C1.30268 5.74021 1.25 5.86739 1.25 6C1.25 6.13261 1.30268 6.25979 1.39645 6.35355C1.49021 6.44732 1.61739 6.5 1.75 6.5ZM3.25 6.5C3.38261 6.5 3.50978 6.44732 3.60355 6.35355C3.69732 6.25979 3.75 6.13261 3.75 6C3.75 5.86739 3.69732 5.74021 3.60355 5.64645C3.50978 5.55268 3.38261 5.5 3.25 5.5C3.11739 5.5 2.99022 5.55268 2.89645 5.64645C2.80268 5.74021 2.75 5.86739 2.75 6C2.75 6.13261 2.80268 6.25979 2.89645 6.35355C2.99022 6.44732 3.11739 6.5 3.25 6.5ZM4.75 6.5C4.88261 6.5 5.00978 6.44732 5.10355 6.35355C5.19732 6.25979 5.25 6.13261 5.25 6C5.25 5.86739 5.19732 5.74021 5.10355 5.64645C5.00978 5.55268 4.88261 5.5 4.75 5.5C4.61739 5.5 4.49021 5.55268 4.39645 5.64645C4.30268 5.74021 4.25 5.86739 4.25 6C4.25 6.13261 4.30268 6.25979 4.39645 6.35355C4.49021 6.44732 4.61739 6.5 4.75 6.5Z" fill="white"/>
</svg>
