<svg width="15" height="14" viewBox="0 0 15 14" fill="none" xmlns="http://www.w3.org/2000/svg">
<path d="M13.994 5.57718C13.7597 5.57718 13.5697 5.76714 13.5697 6.00144V11.6516C13.5697 12.4703 12.9035 13.1365 12.0848 13.1365H2.78172C1.96302 13.1365 1.29679 12.4702 1.29679 11.6516V2.34842C1.29679 1.52972 1.96302 0.863527 2.78172 0.863527H9.14868C9.38298 0.863527 9.57294 0.673567 9.57294 0.439271C9.57294 0.204974 9.38298 0.0150146 9.14868 0.0150146H2.78172C1.49502 0.0150146 0.448242 1.06176 0.448242 2.34842V11.6516C0.448242 12.9382 1.49502 13.985 2.78172 13.985H12.0848C13.3715 13.985 14.4183 12.9382 14.4183 11.6516V6.00147C14.4183 5.76718 14.2283 5.57718 13.994 5.57718Z" fill="#0B9586"/>
<path d="M14.1158 0.866251C13.6044 0.354781 12.7722 0.35499 12.2612 0.866251L4.99402 8.13361C4.98429 8.14334 4.8747 8.25727 4.84631 8.3211L3.83994 10.582C3.76847 10.7425 3.80325 10.9304 3.92754 11.0546C4.00874 11.1357 4.11729 11.1788 4.22772 11.1788C4.28592 11.1788 4.34453 11.1668 4.40006 11.1421L6.66102 10.1357C6.72461 10.1074 6.83872 9.9978 6.84851 9.98807L14.1158 2.72096C14.3636 2.47318 14.5001 2.14381 14.5001 1.7935C14.5001 1.44322 14.3636 1.11379 14.1158 0.866251Z" fill="#0B9586"/>
</svg>
